<svg width="710" height="215" viewBox="0 0 710 215" fill="none" xmlns="http://www.w3.org/2000/svg">
<path opacity="0.12" fill-rule="evenodd" clip-rule="evenodd" d="M88.75 0C65.212 0 42.6381 9.34665 25.9943 25.9838C9.35042 42.621 0 65.1858 0 88.7143V532.286C0 555.814 9.35042 578.379 25.9943 595.016C42.6381 611.653 65.212 621 88.75 621H621.25C644.788 621 667.362 611.653 684.006 595.016C700.65 578.379 710 555.814 710 532.286V88.7143C710 65.1858 700.65 42.621 684.006 25.9838C667.362 9.34665 644.788 0 621.25 0H88.75ZM221.875 88.7143H488.125V266.143H221.875V88.7143ZM576.875 443.571V532.286H621.25V443.571H576.875ZM488.125 354.857H221.875V532.286H488.125V354.857ZM576.875 354.857H621.25V266.143H576.875V354.857ZM621.25 177.429V88.7143H576.875V177.429H621.25ZM133.125 88.7143V177.429H88.75V88.7143H133.125ZM133.125 266.143H88.75V354.857H133.125V266.143ZM88.75 443.571H133.125V532.286H88.75V443.571Z" fill="#E5E7EB"/>
</svg>
