<svg width="66" height="51" viewBox="0 0 66 51" fill="none" xmlns="http://www.w3.org/2000/svg">
<path d="M65.2825 5.88041C62.9569 7.40866 60.7975 8.90367 58.8041 10.3655C56.8107 11.8273 55.0832 13.3555 53.6214 14.9502C52.1596 16.5449 50.9968 18.2725 50.133 20.1329C49.3356 21.9934 48.937 24.1197 48.937 26.5117C48.937 27.2426 49.0034 27.9735 49.1363 28.7044C49.2692 29.3688 49.4353 30.0997 49.6346 30.8971C50.0333 30.5648 50.7974 30.1994 51.927 29.8007C53.0566 29.4021 54.2858 29.2027 55.6147 29.2027C58.4719 29.2027 60.6313 30.1662 62.0931 32.0931C63.6214 34.02 64.3855 36.3456 64.3855 39.0698C64.3855 40.5981 64.0865 42.0267 63.4885 43.3556C62.8905 44.6845 62.0599 45.8473 60.9968 46.8439C59.9337 47.8406 58.7044 48.638 57.3091 49.236C55.9802 49.7675 54.5184 50.0333 52.9237 50.0333C50.1994 50.0333 47.8406 49.5018 45.8473 48.4386C43.8539 47.3755 42.1928 46.0466 40.8639 44.4519C39.6014 42.7908 38.6379 40.9635 37.9735 38.9702C37.3755 36.9768 37.0765 35.0499 37.0765 33.1894C37.0765 28.6047 37.7077 24.618 38.9702 21.2293C40.2326 17.8406 41.9602 14.8505 44.1529 12.2592C46.3456 9.6678 48.8705 7.40866 51.7277 5.48174C54.5848 3.55483 57.6081 1.72758 60.7975 0L65.2825 5.88041ZM28.206 5.88041C25.8804 7.40866 23.721 8.90367 21.7276 10.3655C19.7343 11.8273 18.0067 13.3555 16.5449 14.9502C15.0831 16.5449 13.9203 18.2725 13.0565 20.1329C12.2592 21.9934 11.8605 24.1197 11.8605 26.5117C11.8605 27.2426 11.9269 27.9735 12.0598 28.7044C12.1927 29.3688 12.3588 30.0997 12.5582 30.8971C12.9568 30.5648 13.721 30.1994 14.8505 29.8007C15.9801 29.4021 17.2093 29.2027 18.5382 29.2027C21.3954 29.2027 23.5549 30.1662 25.0167 32.0931C26.5449 34.02 27.309 36.3456 27.309 39.0698C27.309 40.5981 27.01 42.0267 26.412 43.3556C25.814 44.6845 24.9834 45.8473 23.9203 46.8439C22.8572 47.8406 21.6279 48.638 20.2326 49.236C18.9037 49.7675 17.4419 50.0333 15.8472 50.0333C13.1229 50.0333 10.7641 49.5018 8.77078 48.4386C6.77742 47.3755 5.11629 46.0466 3.78738 44.4519C2.52492 42.7908 1.56146 40.9635 0.897012 38.9702C0.299004 36.9768 0 35.0499 0 33.1894C0 28.6047 0.631231 24.618 1.89369 21.2293C3.15615 17.8406 4.88373 14.8505 7.07643 12.2592C9.26912 9.6678 11.794 7.40866 14.6512 5.48174C17.5083 3.55483 20.5316 1.72758 23.721 0L28.206 5.88041Z" fill="#0891B2"/>
</svg>
